<svg width="89" height="60" viewBox="0 0 89 60" fill="none" xmlns="http://www.w3.org/2000/svg">
<path d="M16.0636 14.5854C16.0636 15.5389 15.8653 16.4074 15.4688 17.1909C15.0818 17.9744 14.5579 18.6825 13.8971 19.3149C13.2457 19.938 12.4952 20.4808 11.6456 20.9434C10.8054 21.4059 9.92751 21.793 9.01182 22.1045C8.10557 22.4255 7.1946 22.6662 6.27891 22.8267C5.37266 22.9966 4.53249 23.0957 3.7584 23.124L3.56016 22.416C4.1832 22.2839 4.84401 22.1092 5.54258 21.8921C6.24115 21.6844 6.93027 21.4248 7.60996 21.1133C8.29909 20.8112 8.95046 20.4572 9.56406 20.0513C10.1871 19.6453 10.7346 19.1828 11.2066 18.6636C11.6786 18.1349 12.0515 17.5544 12.3253 16.9219C12.6085 16.2799 12.7501 15.5719 12.7501 14.7979C12.7501 14.2126 12.6132 13.6839 12.3395 13.2119C12.0751 12.7305 11.7258 12.3245 11.2916 11.9941C10.8668 11.6543 10.3806 11.3947 9.83311 11.2153C9.29502 11.0265 8.75222 10.9321 8.20469 10.9321C7.55332 10.9321 6.91139 11.0124 6.27891 11.1729C5.64642 11.3239 5.02337 11.5174 4.40977 11.7534L4.16904 11.1729C4.59385 10.984 5.04225 10.7575 5.51426 10.4932C5.9957 10.2288 6.46299 9.9362 6.91611 9.61523C7.37868 9.28483 7.81764 8.92611 8.23301 8.53906C8.64837 8.14258 9.01182 7.72249 9.32334 7.27881C9.6443 6.82568 9.89919 6.35368 10.088 5.86279C10.2768 5.36247 10.3712 4.83854 10.3712 4.29102C10.3712 3.94173 10.3146 3.62549 10.2013 3.34229C10.0974 3.04964 9.94167 2.79948 9.73399 2.5918C9.5263 2.37467 9.27614 2.20947 8.9835 2.09619C8.70029 1.97347 8.38405 1.91211 8.03477 1.91211C7.46836 1.91211 6.96804 2.03483 6.53379 2.28027C6.10899 2.52572 5.7361 2.8514 5.41514 3.25732C5.10361 3.66325 4.83929 4.13053 4.62217 4.65918C4.41449 5.17839 4.24457 5.71175 4.1124 6.25928C3.98968 6.8068 3.9 7.34961 3.84336 7.8877C3.78672 8.41634 3.7584 8.89307 3.7584 9.31787V20.2495L0.841408 21.2832V10.8755C0.841408 9.9598 0.945249 9.06771 1.15293 8.19922C1.36061 7.33073 1.65798 6.50944 2.04502 5.73535C2.44151 4.95182 2.91823 4.23438 3.4752 3.58301C4.0416 2.93164 4.67409 2.37467 5.37266 1.91211C6.08067 1.4401 6.85003 1.07194 7.68076 0.807617C8.52093 0.543294 9.4083 0.411133 10.3429 0.411133C10.7677 0.411133 11.1783 0.467773 11.5748 0.581055C11.9713 0.694336 12.3159 0.868978 12.6085 1.10498C12.9106 1.34098 13.1513 1.63363 13.3307 1.98291C13.51 2.33219 13.5997 2.73812 13.5997 3.20068C13.5997 3.70101 13.4959 4.19661 13.2882 4.6875C13.0899 5.16895 12.8209 5.64095 12.4811 6.10352C12.1412 6.56608 11.7542 7.00977 11.3199 7.43457C10.8857 7.84993 10.4326 8.23698 9.96055 8.5957C9.49798 8.95443 9.03542 9.27539 8.57285 9.55859C8.11029 9.8418 7.68548 10.0778 7.29844 10.2666C8.26133 10.04 9.24782 9.92676 10.2579 9.92676C10.9942 9.92676 11.707 10.0164 12.3961 10.1958C13.0947 10.3657 13.713 10.6395 14.2511 11.0171C14.7986 11.3853 15.2376 11.8667 15.568 12.4614C15.8984 13.0467 16.0636 13.7547 16.0636 14.5854ZM31.1906 18.2388C30.8602 18.6636 30.4967 19.0601 30.1003 19.4282C29.7132 19.7964 29.2884 20.1174 28.8258 20.3911C28.3727 20.6649 27.8913 20.882 27.3815 21.0425C26.8717 21.203 26.3431 21.2832 25.7956 21.2832C25.097 21.2832 24.4551 21.1605 23.8698 20.915C23.2845 20.6602 22.7795 20.3156 22.3547 19.8813C21.9298 19.4377 21.5994 18.9185 21.3634 18.3237C21.1274 17.7196 21.0094 17.0729 21.0094 16.3838C21.0094 15.8174 21.0897 15.2604 21.2502 14.7129C21.4106 14.1654 21.6372 13.6509 21.9298 13.1694C22.2225 12.688 22.5671 12.2443 22.9635 11.8384C23.3695 11.423 23.8131 11.069 24.2946 10.7764C24.776 10.4837 25.2858 10.2572 25.8239 10.0967C26.362 9.92676 26.9142 9.8418 27.4806 9.8418C27.8771 9.8418 28.25 9.889 28.5993 9.9834C28.958 10.0778 29.2742 10.2288 29.548 10.4365C29.8218 10.6348 30.0389 10.8944 30.1994 11.2153C30.3599 11.5269 30.4401 11.8997 30.4401 12.334C30.4401 12.6927 30.3315 13.0703 30.1144 13.4668C29.9067 13.8633 29.6283 14.2598 29.279 14.6562C28.9391 15.0527 28.5521 15.4445 28.1178 15.8315C27.6836 16.2091 27.2399 16.5632 26.7868 16.8936C26.3431 17.2145 25.9136 17.4977 25.4982 17.7432C25.0828 17.9886 24.7194 18.1774 24.4079 18.3096C24.7572 18.7438 25.1631 19.0978 25.6256 19.3716C26.0882 19.6453 26.5791 19.7822 27.0983 19.7822C27.4287 19.7822 27.7638 19.7209 28.1037 19.5981C28.4435 19.466 28.7692 19.3008 29.0807 19.1025C29.4017 18.9043 29.7038 18.6872 29.987 18.4512C30.2796 18.2152 30.5392 17.9933 30.7658 17.7856L31.1906 18.2388ZM27.778 12.8579C27.778 12.6408 27.7402 12.4331 27.6647 12.2349C27.5986 12.0366 27.4995 11.8667 27.3673 11.7251C27.2352 11.5741 27.0747 11.4561 26.8859 11.3711C26.7065 11.2767 26.4989 11.2295 26.2629 11.2295C25.8381 11.2295 25.4463 11.3805 25.0876 11.6826C24.7288 11.9753 24.4173 12.3387 24.153 12.7729C23.8981 13.2072 23.6951 13.6698 23.5441 14.1606C23.4025 14.6421 23.3317 15.0669 23.3317 15.4351C23.3317 15.7938 23.3883 16.1619 23.5016 16.5396C23.6149 16.9172 23.7707 17.2806 23.9689 17.6299C24.3465 17.4222 24.7572 17.1343 25.2008 16.7661C25.6445 16.3979 26.0552 15.9967 26.4328 15.5625C26.8198 15.1188 27.1408 14.661 27.3957 14.189C27.6506 13.717 27.778 13.2733 27.778 12.8579ZM47.5071 19.3149C47.3938 19.5604 47.2522 19.7917 47.0822 20.0088C46.9123 20.2259 46.7141 20.4194 46.4875 20.5894C46.2704 20.7593 46.0297 20.8962 45.7654 21C45.5105 21.0944 45.2414 21.1416 44.9582 21.1416C44.2125 21.1416 43.6744 20.9386 43.344 20.5327C43.023 20.1174 42.8625 19.5557 42.8625 18.8477V18.5928C42.6926 18.9137 42.4991 19.2347 42.282 19.5557C42.0743 19.8766 41.8336 20.1646 41.5598 20.4194C41.2955 20.6743 40.9981 20.882 40.6677 21.0425C40.3373 21.203 39.9691 21.2832 39.5632 21.2832C38.9496 21.2832 38.4068 21.1652 37.9348 20.9292C37.4628 20.6932 37.0663 20.377 36.7453 19.9805C36.4244 19.5745 36.1836 19.1025 36.0232 18.5645C35.8627 18.0264 35.7824 17.4552 35.7824 16.8511C35.7824 16.0298 35.924 15.2132 36.2072 14.4014C36.4999 13.5801 36.9058 12.8485 37.425 12.2065C37.9537 11.5646 38.5814 11.0454 39.3083 10.6489C40.0447 10.243 40.8612 10.04 41.758 10.04C42.1168 10.04 42.4755 10.0731 42.8342 10.1392C43.1929 10.2052 43.5328 10.3138 43.8537 10.4648C44.1841 10.6064 44.4815 10.7952 44.7458 11.0312C45.0196 11.2673 45.2414 11.5552 45.4114 11.895L43.3015 12.7871C43.1882 12.6077 43.056 12.4378 42.905 12.2773C42.7634 12.1074 42.6029 11.9611 42.4236 11.8384C42.2536 11.7157 42.0696 11.6165 41.8713 11.541C41.6731 11.4655 41.4654 11.4277 41.2483 11.4277C40.7574 11.4277 40.3184 11.5788 39.9314 11.8809C39.5538 12.1829 39.2281 12.5558 38.9543 12.9995C38.69 13.4432 38.487 13.9152 38.3454 14.4155C38.2038 14.9159 38.133 15.369 38.133 15.7749C38.133 16.1336 38.1661 16.5396 38.2322 16.9927C38.3077 17.4364 38.4351 17.8564 38.6145 18.2529C38.7938 18.6494 39.0298 18.9845 39.3225 19.2583C39.6151 19.5321 39.9833 19.6689 40.427 19.6689C40.7763 19.6689 41.0783 19.5934 41.3332 19.4424C41.5881 19.2819 41.8052 19.0789 41.9846 18.8335C42.164 18.5786 42.3103 18.2907 42.4236 17.9697C42.5463 17.6393 42.636 17.3042 42.6926 16.9644C42.7587 16.6245 42.8012 16.2894 42.82 15.959C42.8484 15.6191 42.8625 15.3171 42.8625 15.0527V14.0757L45.4397 13.1694V18.9185C45.4397 19.1073 45.4869 19.2819 45.5813 19.4424C45.6757 19.5934 45.822 19.6689 46.0202 19.6689C46.2562 19.6689 46.4686 19.584 46.6574 19.4141C46.8557 19.2347 47.0114 19.0553 47.1247 18.876L47.5071 19.3149ZM63.6394 19.3433C63.4223 19.8058 63.1674 20.1598 62.8748 20.4053C62.5821 20.6507 62.3037 20.8301 62.0393 20.9434C61.7278 21.0755 61.4116 21.151 61.0906 21.1699C60.6658 21.1699 60.3165 21.1038 60.0428 20.9717C59.7784 20.8395 59.566 20.6649 59.4055 20.4478C59.2451 20.2306 59.1318 19.9852 59.0657 19.7114C59.0091 19.4377 58.9807 19.1592 58.9807 18.876V14.3589C58.9052 14.6987 58.8061 15.1047 58.6834 15.5767C58.5701 16.0487 58.4285 16.5443 58.2586 17.0635C58.0887 17.5732 57.8904 18.083 57.6638 18.5928C57.4373 19.0931 57.173 19.5415 56.8709 19.938C56.5782 20.3345 56.2431 20.6602 55.8655 20.915C55.4973 21.1605 55.082 21.2832 54.6194 21.2832C54.2324 21.2832 53.9256 21.2077 53.699 21.0566C53.4819 20.915 53.3167 20.7121 53.2034 20.4478C53.0996 20.174 53.0335 19.853 53.0052 19.4849C52.9863 19.1073 52.9768 18.6919 52.9768 18.2388V12.0933C52.9768 11.8667 52.9249 11.6873 52.8211 11.5552C52.7172 11.423 52.5804 11.3569 52.4104 11.3569C52.2499 11.3475 52.0706 11.4041 51.8723 11.5269C51.6741 11.6496 51.4806 11.8478 51.2918 12.1216L50.9095 11.6968C51.1266 11.2437 51.3767 10.8944 51.6599 10.6489C51.9431 10.394 52.2216 10.21 52.4954 10.0967C52.8069 9.96452 53.1279 9.889 53.4583 9.87012C53.8831 9.87012 54.2277 9.9362 54.492 10.0684C54.7657 10.2005 54.9781 10.3752 55.1292 10.5923C55.2897 10.8 55.3982 11.0407 55.4549 11.3145C55.5209 11.5882 55.554 11.8667 55.554 12.1499V18.0122C55.554 18.3804 55.6201 18.6211 55.7522 18.7344C55.8844 18.8477 56.0543 18.8335 56.262 18.6919C56.4791 18.5409 56.7151 18.2718 56.97 17.8848C57.2343 17.4883 57.4986 16.9691 57.763 16.3271C57.9329 15.7135 58.0981 15.0811 58.2586 14.4297C58.3907 13.8727 58.5229 13.2591 58.6551 12.5889C58.7967 11.9186 58.9052 11.272 58.9807 10.6489L61.5862 9.74268V18.9468C61.5862 19.1733 61.6381 19.3527 61.742 19.4849C61.8458 19.617 61.978 19.6878 62.1385 19.6973C62.2989 19.6973 62.4736 19.6359 62.6624 19.5132C62.8606 19.3905 63.0541 19.1922 63.243 18.9185L63.6394 19.3433ZM73.7113 19.3433C73.4942 19.8058 73.244 20.1598 72.9608 20.4053C72.6776 20.6507 72.3991 20.8301 72.1253 20.9434C71.8138 21.0755 71.4928 21.151 71.1624 21.1699C70.7376 21.1699 70.3884 21.1038 70.1146 20.9717C69.8503 20.8395 69.6379 20.6649 69.4774 20.4478C69.3263 20.2306 69.2178 19.9852 69.1517 19.7114C69.0951 19.4377 69.0667 19.1592 69.0667 18.876V11.4561H67.5658L68.1747 10.04H69.0667V5.02734L71.6581 4.12109V10.04H74.3485L73.7679 11.4561H71.6581V18.9468C71.6581 19.1733 71.71 19.3527 71.8138 19.4849C71.9177 19.617 72.0498 19.6878 72.2103 19.6973C72.3708 19.6973 72.5501 19.6359 72.7484 19.5132C72.9466 19.3905 73.1401 19.1922 73.3289 18.9185L73.7113 19.3433ZM88.6967 19.8389C88.6967 20.5186 88.6117 21.1794 88.4418 21.8213C88.2719 22.4727 88.0359 23.0815 87.7338 23.6479C87.4411 24.2238 87.0919 24.7477 86.6859 25.2197C86.28 25.7012 85.8363 26.1118 85.3549 26.4517C84.8829 26.8009 84.3826 27.07 83.8539 27.2588C83.3253 27.457 82.7919 27.5562 82.2538 27.5562C81.8479 27.5562 81.4656 27.4854 81.1068 27.3438C80.7481 27.2116 80.4083 27.0322 80.0873 26.8057L81.6732 24.7949C81.8148 24.9082 81.9706 25.0262 82.1405 25.1489C82.3199 25.2716 82.504 25.3802 82.6928 25.4746C82.8816 25.5785 83.0751 25.6587 83.2733 25.7153C83.481 25.7814 83.684 25.8145 83.8822 25.8145C84.2409 25.8145 84.543 25.7059 84.7885 25.4888C85.0434 25.2716 85.251 24.9932 85.4115 24.6533C85.572 24.3135 85.6994 23.9264 85.7938 23.4922C85.8882 23.0674 85.9543 22.6426 85.9921 22.2178C86.0393 21.793 86.0676 21.387 86.077 21C86.0865 20.6224 86.0912 20.3109 86.0912 20.0654V14.3589C86.0157 14.6893 85.9166 15.0905 85.7938 15.5625C85.6711 16.0251 85.5154 16.516 85.3266 17.0352C85.1472 17.5449 84.9395 18.0547 84.7035 18.5645C84.4675 19.0648 84.1985 19.5179 83.8964 19.9238C83.6037 20.3298 83.2733 20.6602 82.9052 20.915C82.5465 21.1605 82.1547 21.2832 81.7299 21.2832C81.2956 21.2832 80.9652 21.1888 80.7387 21C80.5215 20.8018 80.3611 20.5563 80.2572 20.2637C80.1628 19.9616 80.1109 19.6312 80.1015 19.2725C80.092 18.9137 80.0873 18.5692 80.0873 18.2388V12.1216C80.0873 11.9517 80.0401 11.7865 79.9457 11.626C79.8513 11.4561 79.705 11.3711 79.5067 11.3711C79.2707 11.3711 79.0536 11.4608 78.8554 11.6401C78.6666 11.8101 78.5155 11.98 78.4022 12.1499L78.0199 11.7251C78.1332 11.4891 78.2748 11.2625 78.4447 11.0454C78.6241 10.8188 78.8223 10.6206 79.0395 10.4507C79.266 10.2808 79.5067 10.1486 79.7616 10.0542C80.0259 9.95036 80.2997 9.89844 80.5829 9.89844C81.3192 9.89844 81.8479 10.1061 82.1688 10.5215C82.4992 10.9274 82.6645 11.4797 82.6645 12.1782V18.0122C82.6645 18.0688 82.6645 18.1444 82.6645 18.2388C82.6739 18.3237 82.6928 18.4087 82.7211 18.4937C82.7494 18.5692 82.7919 18.64 82.8485 18.7061C82.9052 18.7627 82.9807 18.791 83.0751 18.791C83.2545 18.791 83.4385 18.6872 83.6273 18.4795C83.8161 18.2718 83.9955 18.0311 84.1654 17.7573C84.3354 17.4836 84.4817 17.2098 84.6044 16.936C84.7271 16.6623 84.8168 16.4593 84.8734 16.3271C85.0434 15.9212 85.1944 15.4775 85.3266 14.9961C85.4587 14.5146 85.572 14.0238 85.6664 13.5234C85.7702 13.0137 85.8552 12.5133 85.9213 12.0225C85.9968 11.5221 86.0534 11.0454 86.0912 10.5923L88.6967 9.68604V19.8389ZM40.2197 51.0601C40.0781 51.3338 39.8987 51.5981 39.6816 51.853C39.4739 52.1079 39.2332 52.3345 38.9594 52.5327C38.6951 52.7215 38.4119 52.8773 38.1098 53C37.8077 53.1133 37.4962 53.1699 37.1752 53.1699C36.656 53.1699 36.1982 53.0708 35.8017 52.8726C35.4052 52.6743 35.0748 52.41 34.8105 52.0796C34.5462 51.7397 34.3479 51.3527 34.2158 50.9185C34.0836 50.4842 34.0175 50.0264 34.0175 49.5449V47.874C33.8287 48.5726 33.5786 49.2476 33.267 49.8989C32.9555 50.5409 32.5685 51.1167 32.1059 51.6265C31.6433 52.1268 31.1005 52.528 30.4775 52.8301C29.8639 53.1322 29.1606 53.2832 28.3676 53.2832C27.7634 53.2832 27.2442 53.1746 26.81 52.9575C26.3758 52.731 26.017 52.4289 25.7338 52.0513C25.4506 51.6737 25.2429 51.2394 25.1108 50.7485C24.9786 50.2482 24.9125 49.7243 24.9125 49.1768V33.5439L27.8437 32.4961V48.1289C27.8437 48.4688 27.8484 48.8464 27.8578 49.2617C27.8673 49.6771 27.9239 50.0641 28.0278 50.4229C28.1316 50.7816 28.311 51.0837 28.5659 51.3291C28.8207 51.5745 29.1889 51.6973 29.6703 51.6973C30.2084 51.6973 30.6852 51.5368 31.1005 51.2158C31.5253 50.8854 31.8982 50.4606 32.2192 49.9414C32.5496 49.4128 32.8281 48.818 33.0546 48.1572C33.2812 47.4964 33.4653 46.8403 33.6069 46.189C33.7485 45.5282 33.8523 44.9004 33.9184 44.3057C33.9845 43.7015 34.0175 43.1965 34.0175 42.7905V33.5439L36.9487 32.4961V50.0122C36.9487 50.201 36.9675 50.3898 37.0053 50.5786C37.0431 50.7674 37.1092 50.9373 37.2036 51.0884C37.298 51.23 37.4207 51.348 37.5717 51.4424C37.7228 51.5368 37.9116 51.584 38.1381 51.584C38.4591 51.584 38.7612 51.4896 39.0444 51.3008C39.337 51.112 39.5777 50.8949 39.7665 50.6494L40.2197 51.0601ZM50.3481 53.2549C50.0177 53.2549 49.7015 53.2077 49.3994 53.1133C49.0973 53.0283 48.8141 52.882 48.5498 52.6743L49.6543 51.0884C49.8337 51.3338 50.0413 51.5273 50.2773 51.6689C50.5228 51.8011 50.7918 51.8672 51.0845 51.8672C51.3866 51.8672 51.6462 51.7917 51.8633 51.6406C52.0804 51.4801 52.2598 51.2725 52.4014 51.0176C52.5524 50.7627 52.6751 50.4795 52.7695 50.168C52.8639 49.847 52.9347 49.526 52.9819 49.2051C53.0291 48.8841 53.0622 48.5773 53.0811 48.2847C53.0999 47.9826 53.1094 47.7277 53.1094 47.52C53.1094 47.1235 53.0527 46.694 52.9395 46.2314C52.8356 45.7689 52.6704 45.3346 52.4438 44.9287C52.2267 44.5228 51.9435 44.1877 51.5942 43.9233C51.245 43.6496 50.8296 43.5127 50.3481 43.5127C50.0177 43.5127 49.7345 43.5977 49.4985 43.7676C49.272 43.9281 49.0785 44.1452 48.918 44.4189C48.7669 44.6833 48.6442 44.9901 48.5498 45.3394C48.4648 45.6792 48.3988 46.0238 48.3516 46.373C48.3138 46.7129 48.2902 47.048 48.2808 47.3784C48.2713 47.6994 48.2666 47.9779 48.2666 48.2139V59.0889L45.6895 59.9951V44.0933C45.6895 43.9045 45.6423 43.7345 45.5479 43.5835C45.4535 43.423 45.3071 43.3428 45.1089 43.3428C44.8729 43.3428 44.6558 43.4325 44.4575 43.6118C44.2687 43.7817 44.1177 43.9517 44.0044 44.1216L43.6221 43.6968C43.7354 43.4608 43.877 43.2342 44.0469 43.0171C44.2262 42.7905 44.4245 42.5923 44.6416 42.4224C44.8682 42.2524 45.1089 42.1203 45.3638 42.0259C45.6281 41.922 45.9019 41.8701 46.1851 41.8701C46.591 41.8701 46.9261 41.9315 47.1904 42.0542C47.4548 42.1675 47.6672 42.3327 47.8276 42.5498C47.9881 42.7669 48.1014 43.0265 48.1675 43.3286C48.2336 43.6307 48.2666 43.9658 48.2666 44.334C48.4176 44.0413 48.5923 43.7487 48.7905 43.4561C48.9982 43.154 49.2295 42.8896 49.4844 42.6631C49.7393 42.4271 50.0177 42.2383 50.3198 42.0967C50.6313 41.9456 50.9712 41.8701 51.3394 41.8701C51.9907 41.8701 52.5666 42.0164 53.0669 42.3091C53.5767 42.5923 54.0015 42.9699 54.3413 43.4419C54.6906 43.9045 54.9549 44.4284 55.1343 45.0137C55.3136 45.599 55.4033 46.1937 55.4033 46.7979C55.4033 47.5436 55.2948 48.2988 55.0776 49.0635C54.87 49.8281 54.5537 50.522 54.1289 51.145C53.7135 51.7681 53.1896 52.2778 52.5571 52.6743C51.9246 53.0614 51.1883 53.2549 50.3481 53.2549ZM64.753 32.6943L63.5919 48.5679L62.0767 48.936L60.8873 33.7422L64.753 32.6943ZM64.4556 51.9238C64.4556 52.1504 64.4131 52.3628 64.3282 52.561C64.2432 52.7593 64.1252 52.9292 63.9742 53.0708C63.8326 53.2218 63.6627 53.3398 63.4644 53.4248C63.2756 53.5098 63.0679 53.5522 62.8414 53.5522C62.6148 53.5522 62.3977 53.5098 62.19 53.4248C61.9918 53.3398 61.8171 53.2218 61.6661 53.0708C61.5245 52.9292 61.4065 52.7593 61.3121 52.561C61.2271 52.3628 61.1846 52.1504 61.1846 51.9238C61.1846 51.6973 61.2271 51.4849 61.3121 51.2866C61.4065 51.0884 61.5245 50.9137 61.6661 50.7627C61.8171 50.6117 61.9918 50.4937 62.19 50.4087C62.3977 50.3143 62.6148 50.2671 62.8414 50.2671C63.0679 50.2671 63.2756 50.3143 63.4644 50.4087C63.6627 50.4937 63.8326 50.6117 63.9742 50.7627C64.1252 50.9137 64.2432 51.0884 64.3282 51.2866C64.4131 51.4849 64.4556 51.6973 64.4556 51.9238Z" fill="black"/>
</svg>
