<svg width="37" height="22" viewBox="0 0 37 22" fill="none" xmlns="http://www.w3.org/2000/svg">
<g clip-path="url(#clip0_2102_222)">
<rect width="37" height="22" fill="white" fill-opacity="0.88"/>
<g filter="url(#filter0_d_2102_222)">
<ellipse cx="18.5" cy="11" rx="18.5" ry="11" fill="#FFBBDA" fill-opacity="0.72" shape-rendering="crispEdges"/>
</g>
<path d="M6.88135 8.04102H8.49854L12.1416 12.5103V9.07373C12.1416 8.70752 12.1006 8.479 12.0186 8.38818C11.9102 8.26514 11.7388 8.20361 11.5044 8.20361H11.2979V8.04102H13.3721V8.20361H13.1611C12.9092 8.20361 12.7305 8.27979 12.625 8.43213C12.5605 8.52588 12.5283 8.73975 12.5283 9.07373V14.0967H12.3701L8.44141 9.29785V12.9673C8.44141 13.3335 8.48096 13.562 8.56006 13.6528C8.67139 13.7759 8.84277 13.8374 9.07422 13.8374H9.28516V14H7.21094V13.8374H7.41748C7.67236 13.8374 7.85254 13.7612 7.95801 13.6089C8.02246 13.5151 8.05469 13.3013 8.05469 12.9673V8.82324C7.88184 8.62109 7.75 8.48779 7.65918 8.42334C7.57129 8.35889 7.44092 8.29883 7.26807 8.24316C7.18311 8.2168 7.0542 8.20361 6.88135 8.20361V8.04102ZM16.1048 8.36621V10.7217H17.4143C17.7542 10.7217 17.9812 10.6704 18.0955 10.5679C18.2478 10.4331 18.3328 10.1958 18.3504 9.85596H18.513V11.9302H18.3504C18.3094 11.6401 18.2683 11.4541 18.2273 11.3721C18.1746 11.2695 18.0882 11.189 17.968 11.1304C17.8479 11.0718 17.6634 11.0425 17.4143 11.0425H16.1048V13.0068C16.1048 13.2705 16.1165 13.4316 16.1399 13.4902C16.1634 13.5459 16.2044 13.5913 16.263 13.6265C16.3216 13.6587 16.4329 13.6748 16.597 13.6748H17.6077C17.9446 13.6748 18.1892 13.6514 18.3416 13.6045C18.4939 13.5576 18.6404 13.4653 18.781 13.3276C18.9627 13.146 19.1487 12.8721 19.3391 12.5059H19.5149L19.0008 14H14.4085V13.8374H14.6194C14.76 13.8374 14.8933 13.8037 15.0193 13.7363C15.1131 13.6895 15.1761 13.6191 15.2083 13.5254C15.2434 13.4316 15.261 13.2397 15.261 12.9497V9.07812C15.261 8.7002 15.2229 8.46729 15.1468 8.37939C15.0413 8.26221 14.8655 8.20361 14.6194 8.20361H14.4085V8.04102H19.0008L19.0667 9.34619H18.8953C18.8338 9.03271 18.7649 8.81738 18.6888 8.7002C18.6155 8.58301 18.5056 8.49365 18.3592 8.43213C18.242 8.38818 18.0354 8.36621 17.7395 8.36621H16.1048ZM28.8702 8.04102V8.20361C28.7149 8.20361 28.5889 8.23145 28.4922 8.28711C28.3956 8.34277 28.3033 8.44678 28.2154 8.59912C28.1568 8.70166 28.0645 8.94629 27.9385 9.33301L26.2774 14.1362H26.1016L24.7437 10.3262L23.3946 14.1362H23.2364L21.4654 9.18799C21.3336 8.81885 21.2501 8.60059 21.2149 8.5332C21.1563 8.42188 21.0757 8.33984 20.9732 8.28711C20.8736 8.23145 20.7374 8.20361 20.5645 8.20361V8.04102H22.7706V8.20361H22.6651C22.5098 8.20361 22.3912 8.23877 22.3091 8.30908C22.2271 8.37939 22.1861 8.46436 22.1861 8.56396C22.1861 8.6665 22.2505 8.90234 22.3795 9.27148L23.5528 12.6157L24.5416 9.77246L24.3658 9.27148L24.2252 8.87158C24.1636 8.7251 24.0948 8.59619 24.0186 8.48486C23.9805 8.4292 23.9337 8.38232 23.878 8.34424C23.8047 8.2915 23.7315 8.25342 23.6583 8.22998C23.6026 8.2124 23.5147 8.20361 23.3946 8.20361V8.04102H25.7149V8.20361H25.5567C25.3926 8.20361 25.2725 8.23877 25.1963 8.30908C25.1202 8.37939 25.0821 8.47461 25.0821 8.59473C25.0821 8.74414 25.148 9.00488 25.2798 9.37695L26.4224 12.6157L27.5562 9.33301C27.6851 8.96973 27.7496 8.71777 27.7496 8.57715C27.7496 8.50977 27.7276 8.44678 27.6837 8.38818C27.6426 8.32959 27.5899 8.28857 27.5254 8.26514C27.4141 8.22412 27.2691 8.20361 27.0904 8.20361V8.04102H28.8702Z" fill="white"/>
</g>
<defs>
<filter id="filter0_d_2102_222" x="-4" y="0" width="45" height="30" filterUnits="userSpaceOnUse" color-interpolation-filters="sRGB">
<feFlood flood-opacity="0" result="BackgroundImageFix"/>
<feColorMatrix in="SourceAlpha" type="matrix" values="0 0 0 0 0 0 0 0 0 0 0 0 0 0 0 0 0 0 127 0" result="hardAlpha"/>
<feOffset dy="4"/>
<feGaussianBlur stdDeviation="2"/>
<feComposite in2="hardAlpha" operator="out"/>
<feColorMatrix type="matrix" values="0 0 0 0 0 0 0 0 0 0 0 0 0 0 0 0 0 0 0.25 0"/>
<feBlend mode="normal" in2="BackgroundImageFix" result="effect1_dropShadow_2102_222"/>
<feBlend mode="normal" in="SourceGraphic" in2="effect1_dropShadow_2102_222" result="shape"/>
</filter>
<clipPath id="clip0_2102_222">
<rect width="37" height="22" fill="white"/>
</clipPath>
</defs>
</svg>
